<svg width="108" height="18" viewBox="0 0 108 18" fill="none" xmlns="http://www.w3.org/2000/svg">
<path d="M7.416 17C7.032 17 6.72 16.888 6.48 16.664C6.256 16.424 6.144 16.128 6.144 15.776V1.4H8.712V15.776C8.712 16.128 8.584 16.424 8.328 16.664C8.088 16.888 7.784 17 7.416 17ZM1.968 2.504C1.632 2.504 1.344 2.4 1.104 2.192C0.864 1.968 0.744 1.68 0.744 1.328C0.744 0.991999 0.864 0.719999 1.104 0.511999C1.344 0.303999 1.632 0.199999 1.968 0.199999H12.888C13.224 0.199999 13.504 0.311999 13.728 0.535999C13.968 0.743999 14.088 1.016 14.088 1.352C14.088 1.704 13.968 1.984 13.728 2.192C13.504 2.4 13.224 2.504 12.888 2.504H1.968ZM18.0274 0.199999H26.3314C26.6674 0.199999 26.9474 0.311999 27.1714 0.535999C27.4114 0.759999 27.5314 1.04 27.5314 1.376C27.5314 1.712 27.4114 1.984 27.1714 2.192C26.9474 2.4 26.6674 2.504 26.3314 2.504H19.0834L19.3234 2.096V7.472L19.1074 7.232H25.2514C25.5874 7.232 25.8674 7.344 26.0914 7.568C26.3314 7.792 26.4514 8.08 26.4514 8.432C26.4514 8.768 26.3314 9.04 26.0914 9.248C25.8674 9.456 25.5874 9.56 25.2514 9.56H19.1554L19.3234 9.344V14.888L19.1554 14.696H26.3314C26.6674 14.696 26.9474 14.816 27.1714 15.056C27.4114 15.28 27.5314 15.544 27.5314 15.848C27.5314 16.184 27.4114 16.464 27.1714 16.688C26.9474 16.896 26.6674 17 26.3314 17H18.0274C17.6914 17 17.4034 16.888 17.1634 16.664C16.9234 16.424 16.8034 16.128 16.8034 15.776V1.424C16.8034 1.072 16.9234 0.783999 17.1634 0.559999C17.4034 0.319999 17.6914 0.199999 18.0274 0.199999ZM36.5143 3.32L31.1143 16.28C31.0183 16.536 30.8743 16.736 30.6823 16.88C30.4903 17.024 30.2743 17.096 30.0343 17.096C29.6823 17.096 29.4183 17 29.2423 16.808C29.0663 16.6 28.9703 16.344 28.9543 16.04C28.9543 15.928 28.9783 15.8 29.0263 15.656L35.1223 0.92C35.2343 0.647999 35.3943 0.439999 35.6023 0.295999C35.8263 0.151999 36.0663 0.0879989 36.3223 0.103999C36.5623 0.103999 36.7863 0.175999 36.9943 0.319999C37.2023 0.463999 37.3543 0.663999 37.4503 0.92L43.4743 15.44C43.5383 15.6 43.5703 15.76 43.5703 15.92C43.5703 16.272 43.4503 16.56 43.2103 16.784C42.9863 16.992 42.7303 17.096 42.4423 17.096C42.2023 17.096 41.9783 17.024 41.7703 16.88C41.5783 16.72 41.4343 16.52 41.3383 16.28L35.8903 3.392L36.5143 3.32ZM32.0743 12.872L33.1543 10.568H39.9463L40.3543 12.872H32.0743ZM44.9048 15.032C44.7608 14.808 44.6968 14.552 44.7128 14.264C44.7288 13.96 44.8968 13.704 45.2168 13.496C45.4408 13.352 45.6727 13.296 45.9128 13.328C46.1688 13.344 46.4088 13.464 46.6328 13.688C47.0808 14.184 47.5768 14.576 48.1208 14.864C48.6808 15.152 49.3528 15.296 50.1367 15.296C50.4568 15.28 50.7848 15.232 51.1208 15.152C51.4568 15.056 51.7448 14.896 51.9848 14.672C52.2248 14.432 52.3448 14.088 52.3448 13.64C52.3448 13.24 52.2168 12.92 51.9608 12.68C51.7048 12.44 51.3688 12.248 50.9528 12.104C50.5368 11.944 50.0888 11.8 49.6088 11.672C49.0968 11.528 48.5768 11.368 48.0488 11.192C47.5368 11.016 47.0728 10.792 46.6568 10.52C46.2408 10.232 45.8968 9.864 45.6248 9.416C45.3688 8.968 45.2408 8.416 45.2408 7.76C45.2408 7.008 45.4488 6.36 45.8648 5.816C46.2968 5.272 46.8488 4.848 47.5208 4.544C48.2088 4.24 48.9528 4.088 49.7528 4.088C50.2168 4.088 50.7048 4.152 51.2168 4.28C51.7288 4.392 52.2248 4.576 52.7048 4.832C53.1848 5.088 53.6008 5.424 53.9528 5.84C54.1128 6.048 54.2008 6.296 54.2168 6.584C54.2488 6.872 54.1208 7.128 53.8328 7.352C53.6408 7.512 53.4088 7.584 53.1368 7.568C52.8648 7.552 52.6408 7.464 52.4648 7.304C52.1608 6.92 51.7688 6.624 51.2888 6.416C50.8088 6.192 50.2648 6.08 49.6568 6.08C49.3528 6.08 49.0328 6.128 48.6968 6.224C48.3768 6.304 48.1048 6.456 47.8808 6.68C47.6568 6.904 47.5448 7.232 47.5448 7.664C47.5448 8.064 47.6728 8.384 47.9288 8.624C48.2008 8.864 48.5528 9.064 48.9848 9.224C49.4168 9.384 49.8888 9.528 50.4008 9.656C50.8968 9.784 51.3848 9.936 51.8648 10.112C52.3608 10.288 52.8008 10.52 53.1848 10.808C53.5848 11.08 53.9048 11.44 54.1448 11.888C54.4008 12.32 54.5288 12.872 54.5288 13.544C54.5288 14.328 54.2968 15 53.8328 15.56C53.3848 16.104 52.8088 16.52 52.1048 16.808C51.4168 17.096 50.6888 17.24 49.9208 17.24C49.0088 17.24 48.0968 17.08 47.1848 16.76C46.2888 16.424 45.5288 15.848 44.9048 15.032ZM62.9897 17.24C61.6617 17.24 60.5097 16.968 59.5337 16.424C58.5577 15.864 57.7977 15.104 57.2537 14.144C56.7257 13.168 56.4617 12.056 56.4617 10.808C56.4617 9.4 56.7417 8.2 57.3017 7.208C57.8777 6.2 58.6217 5.432 59.5337 4.904C60.4457 4.36 61.4137 4.088 62.4377 4.088C63.2217 4.088 63.9657 4.248 64.6697 4.568C65.3737 4.872 65.9977 5.304 66.5417 5.864C67.1017 6.408 67.5417 7.056 67.8617 7.808C68.1817 8.544 68.3497 9.352 68.3657 10.232C68.3497 10.552 68.2217 10.816 67.9817 11.024C67.7417 11.232 67.4617 11.336 67.1417 11.336H57.8057L57.2297 9.296H66.2537L65.7977 9.728V9.128C65.7657 8.568 65.5817 8.08 65.2457 7.664C64.9097 7.232 64.4937 6.904 63.9977 6.68C63.5017 6.44 62.9817 6.32 62.4377 6.32C61.9577 6.32 61.4937 6.4 61.0457 6.56C60.6137 6.704 60.2217 6.944 59.8697 7.28C59.5337 7.616 59.2617 8.064 59.0537 8.624C58.8617 9.168 58.7657 9.848 58.7657 10.664C58.7657 11.544 58.9497 12.312 59.3177 12.968C59.6857 13.624 60.1817 14.136 60.8057 14.504C61.4297 14.856 62.1177 15.032 62.8697 15.032C63.4617 15.032 63.9497 14.976 64.3337 14.864C64.7177 14.736 65.0377 14.584 65.2937 14.408C65.5497 14.232 65.7737 14.064 65.9657 13.904C66.2057 13.76 66.4457 13.688 66.6857 13.688C66.9737 13.688 67.2137 13.792 67.4057 14C67.5977 14.192 67.6937 14.424 67.6937 14.696C67.6937 15.048 67.5177 15.368 67.1657 15.656C66.7337 16.072 66.1337 16.44 65.3657 16.76C64.6137 17.08 63.8217 17.24 62.9897 17.24ZM77.5824 4.088C78.7184 4.088 79.5984 4.328 80.2224 4.808C80.8464 5.272 81.2784 5.904 81.5184 6.704C81.7744 7.488 81.9024 8.368 81.9024 9.344V15.776C81.9024 16.128 81.7824 16.424 81.5424 16.664C81.3184 16.888 81.0384 17 80.7024 17C80.3504 17 80.0624 16.888 79.8384 16.664C79.6144 16.424 79.5024 16.128 79.5024 15.776V9.368C79.5024 8.792 79.4224 8.28 79.2624 7.832C79.1024 7.368 78.8224 7 78.4224 6.728C78.0384 6.44 77.4944 6.296 76.7904 6.296C76.1344 6.296 75.5584 6.44 75.0624 6.728C74.5664 7 74.1744 7.368 73.8864 7.832C73.6144 8.28 73.4784 8.792 73.4784 9.368V15.776C73.4784 16.128 73.3584 16.424 73.1184 16.664C72.8944 16.888 72.6144 17 72.2784 17C71.9264 17 71.6384 16.888 71.4144 16.664C71.1904 16.424 71.0784 16.128 71.0784 15.776V5.6C71.0784 5.248 71.1904 4.96 71.4144 4.736C71.6384 4.496 71.9264 4.376 72.2784 4.376C72.6144 4.376 72.8944 4.496 73.1184 4.736C73.3584 4.96 73.4784 5.248 73.4784 5.6V6.944L73.0464 7.184C73.1584 6.832 73.3504 6.48 73.6224 6.128C73.9104 5.76 74.2544 5.424 74.6544 5.12C75.0544 4.8 75.5024 4.552 75.9984 4.376C76.4944 4.184 77.0224 4.088 77.5824 4.088ZM84.4907 15.032C84.3467 14.808 84.2827 14.552 84.2987 14.264C84.3147 13.96 84.4827 13.704 84.8027 13.496C85.0267 13.352 85.2587 13.296 85.4987 13.328C85.7547 13.344 85.9947 13.464 86.2187 13.688C86.6667 14.184 87.1627 14.576 87.7067 14.864C88.2667 15.152 88.9387 15.296 89.7227 15.296C90.0427 15.28 90.3707 15.232 90.7067 15.152C91.0427 15.056 91.3307 14.896 91.5707 14.672C91.8107 14.432 91.9307 14.088 91.9307 13.64C91.9307 13.24 91.8027 12.92 91.5467 12.68C91.2907 12.44 90.9547 12.248 90.5387 12.104C90.1227 11.944 89.6747 11.8 89.1947 11.672C88.6827 11.528 88.1627 11.368 87.6347 11.192C87.1227 11.016 86.6587 10.792 86.2427 10.52C85.8267 10.232 85.4827 9.864 85.2107 9.416C84.9547 8.968 84.8267 8.416 84.8267 7.76C84.8267 7.008 85.0347 6.36 85.4507 5.816C85.8827 5.272 86.4347 4.848 87.1067 4.544C87.7947 4.24 88.5387 4.088 89.3387 4.088C89.8027 4.088 90.2907 4.152 90.8027 4.28C91.3147 4.392 91.8107 4.576 92.2907 4.832C92.7707 5.088 93.1867 5.424 93.5387 5.84C93.6987 6.048 93.7867 6.296 93.8027 6.584C93.8347 6.872 93.7067 7.128 93.4187 7.352C93.2267 7.512 92.9947 7.584 92.7227 7.568C92.4507 7.552 92.2267 7.464 92.0507 7.304C91.7467 6.92 91.3547 6.624 90.8747 6.416C90.3947 6.192 89.8507 6.08 89.2427 6.08C88.9387 6.08 88.6187 6.128 88.2827 6.224C87.9627 6.304 87.6907 6.456 87.4667 6.68C87.2427 6.904 87.1307 7.232 87.1307 7.664C87.1307 8.064 87.2587 8.384 87.5147 8.624C87.7867 8.864 88.1387 9.064 88.5707 9.224C89.0027 9.384 89.4747 9.528 89.9867 9.656C90.4827 9.784 90.9707 9.936 91.4507 10.112C91.9467 10.288 92.3867 10.52 92.7707 10.808C93.1707 11.08 93.4907 11.44 93.7307 11.888C93.9867 12.32 94.1147 12.872 94.1147 13.544C94.1147 14.328 93.8827 15 93.4187 15.56C92.9707 16.104 92.3947 16.52 91.6907 16.808C91.0027 17.096 90.2747 17.24 89.5067 17.24C88.5947 17.24 87.6827 17.08 86.7707 16.76C85.8747 16.424 85.1147 15.848 84.4907 15.032ZM102.576 17.24C101.248 17.24 100.096 16.968 99.1196 16.424C98.1436 15.864 97.3836 15.104 96.8396 14.144C96.3116 13.168 96.0476 12.056 96.0476 10.808C96.0476 9.4 96.3276 8.2 96.8876 7.208C97.4636 6.2 98.2076 5.432 99.1196 4.904C100.032 4.36 101 4.088 102.024 4.088C102.808 4.088 103.552 4.248 104.256 4.568C104.96 4.872 105.584 5.304 106.128 5.864C106.688 6.408 107.128 7.056 107.448 7.808C107.768 8.544 107.936 9.352 107.952 10.232C107.936 10.552 107.808 10.816 107.568 11.024C107.328 11.232 107.048 11.336 106.728 11.336H97.3916L96.8156 9.296H105.84L105.384 9.728V9.128C105.352 8.568 105.168 8.08 104.832 7.664C104.496 7.232 104.08 6.904 103.584 6.68C103.088 6.44 102.568 6.32 102.024 6.32C101.544 6.32 101.08 6.4 100.632 6.56C100.2 6.704 99.8076 6.944 99.4556 7.28C99.1196 7.616 98.8476 8.064 98.6396 8.624C98.4476 9.168 98.3516 9.848 98.3516 10.664C98.3516 11.544 98.5356 12.312 98.9036 12.968C99.2716 13.624 99.7676 14.136 100.392 14.504C101.016 14.856 101.704 15.032 102.456 15.032C103.048 15.032 103.536 14.976 103.92 14.864C104.304 14.736 104.624 14.584 104.88 14.408C105.136 14.232 105.36 14.064 105.552 13.904C105.792 13.76 106.032 13.688 106.272 13.688C106.56 13.688 106.8 13.792 106.992 14C107.184 14.192 107.28 14.424 107.28 14.696C107.28 15.048 107.104 15.368 106.752 15.656C106.32 16.072 105.72 16.44 104.952 16.76C104.2 17.08 103.408 17.24 102.576 17.24Z" fill="url(#paint0_linear_248_532)"/>
<defs>
<linearGradient id="paint0_linear_248_532" x1="0" y1="8" x2="110" y2="8" gradientUnits="userSpaceOnUse">
<stop stop-color="#F99F0E"/>
<stop offset="0.25" stop-color="#FD2A77"/>
<stop offset="0.5" stop-color="#A3379D"/>
<stop offset="0.75" stop-color="#1C8BBE"/>
<stop offset="1" stop-color="#9CC224"/>
</linearGradient>
</defs>
</svg>
