<svg width="80" height="25" viewBox="0 0 80 25" fill="none" xmlns="http://www.w3.org/2000/svg">
<rect width="80" height="25" rx="10" fill="#28AF4B"/>
<path d="M8.184 20V8.8H9.752L13.784 16.608L17.784 8.8H19.368V20H18.024V11.2L14.28 18.4H13.272L9.528 11.216V20H8.184ZM21.0269 20L25.1549 8.8H26.5789L30.6909 20H29.2669L28.2429 17.12H23.4749L22.4349 20H21.0269ZM23.8749 16.032H27.8429L25.8589 10.496L23.8749 16.032ZM32.3559 20V8.8H33.6999L39.6679 17.776V8.8H41.0119V20H39.6679L33.6999 11.024V20H32.3559ZM47.4351 20.192C46.6671 20.192 45.9685 20.0427 45.3391 19.744C44.7205 19.4347 44.2245 18.96 43.8511 18.32C43.4778 17.68 43.2911 16.864 43.2911 15.872V8.8H44.6351V15.888C44.6351 16.976 44.8965 17.7653 45.4191 18.256C45.9418 18.7467 46.6245 18.992 47.4671 18.992C48.3098 18.992 48.9871 18.7467 49.4991 18.256C50.0111 17.7653 50.2671 16.976 50.2671 15.888V8.8H51.6111V15.872C51.6111 16.864 51.4245 17.68 51.0511 18.32C50.6778 18.96 50.1765 19.4347 49.5471 19.744C48.9178 20.0427 48.2138 20.192 47.4351 20.192ZM52.6988 20L56.8268 8.8H58.2508L62.3628 20H60.9388L59.9148 17.12H55.1468L54.1068 20H52.6988ZM55.5468 16.032H59.5148L57.5308 10.496L55.5468 16.032ZM64.0278 20V8.8H65.3718V18.928H70.5878V20H64.0278Z" fill="white"/>
</svg>
